<svg width="53" height="40" viewBox="0 0 53 40" fill="none" xmlns="http://www.w3.org/2000/svg">
<path d="M30.6067 23.0979H39.0894V28.2357H30.6067V23.0979Z" fill="#B92323"/>
<path d="M34.6409 18.5681C33.7443 18.5681 32.9192 18.0743 32.4759 17.2741C32.03 16.4739 32.0374 15.4915 32.4931 14.6989L34.434 11.3362H1.63546C1.20195 11.3362 0.785668 11.5109 0.477835 11.8274C0.169951 12.1439 0 12.5718 0 13.0175V38.3187C0 38.7643 0.169951 39.1923 0.477835 39.5088C0.785718 39.8253 1.20195 40 1.63546 40H41.9312C42.3647 40 42.7785 39.8202 43.0839 39.5062C43.3869 39.1897 43.5593 38.7643 43.5568 38.3187V18.5677L34.6409 18.5681ZM8.71975 35.6347H3.48816C2.94383 35.6347 2.50293 35.1815 2.50293 34.6219C2.50293 34.0622 2.94383 33.609 3.48816 33.609H8.71975C9.26409 33.609 9.70498 34.0622 9.70498 34.6219C9.70498 35.1815 9.26409 35.6347 8.71975 35.6347ZM19.1629 35.6347H13.9412C13.3968 35.6347 12.956 35.1815 12.956 34.6219C12.956 34.0622 13.3968 33.609 13.9412 33.609H19.1629C19.7072 33.609 20.1481 34.0622 20.1481 34.6219C20.1481 35.1815 19.7072 35.6347 19.1629 35.6347ZM29.6161 35.6347H24.3944C23.8501 35.6347 23.4092 35.1815 23.4092 34.6219C23.4092 34.0622 23.8501 33.609 24.3944 33.609H29.6161C30.1604 33.609 30.6013 34.0622 30.6013 34.6219C30.6013 35.1815 30.1604 35.6347 29.6161 35.6347ZM40.0693 35.6347H34.8476C34.3033 35.6347 33.8624 35.1815 33.8624 34.6219C33.8624 34.0622 34.3033 33.609 34.8476 33.609H40.0693C40.6136 33.609 41.0545 34.0622 41.0545 34.6219C41.0545 35.1815 40.6136 35.6347 40.0693 35.6347ZM41.0545 28.4128C41.0545 29.4332 40.254 30.2613 39.2614 30.2663H30.4337C29.4386 30.2663 28.6307 29.4358 28.6307 28.4128V22.923C28.6307 21.9 29.4386 21.0695 30.4337 21.0695H39.2614C40.254 21.0745 41.0545 21.9026 41.0545 22.923V28.4128Z" fill="#B92323"/>
<path d="M52.9268 15.7321L44.0102 0.265879C43.9166 0.101286 43.7442 0 43.557 0C43.3698 0 43.1974 0.101286 43.1038 0.265879L36.7195 11.3364L34.1875 15.7322C34.0914 15.8993 34.089 16.1069 34.1826 16.2741C34.2762 16.4412 34.451 16.545 34.6407 16.5425H52.4732C52.6629 16.545 52.8377 16.4412 52.9313 16.2741C53.0249 16.1069 53.0228 15.8992 52.9268 15.7321ZM42.5719 5.77326C42.5719 5.21365 43.0128 4.7604 43.5572 4.7604C44.1015 4.7604 44.5424 5.21365 44.5424 5.77326V11.3237V11.3212C44.5424 11.8808 44.1015 12.3341 43.5572 12.3341C43.0128 12.3341 42.5719 11.8808 42.5719 11.3212V5.77326ZM43.5572 14.975C43.1582 14.975 42.7986 14.7294 42.6458 14.3495C42.4956 13.9722 42.5793 13.5367 42.8601 13.2455C43.1434 12.9569 43.567 12.8708 43.934 13.0278C44.3035 13.1848 44.5424 13.5545 44.5424 13.9621C44.5424 14.2305 44.4389 14.4888 44.2542 14.6788C44.0695 14.8687 43.8183 14.975 43.5572 14.975Z" fill="#B92323"/>
</svg>
