<svg width="40" height="40" viewBox="0 0 40 40" fill="none" xmlns="http://www.w3.org/2000/svg">
<path d="M20 0C8.97244 0 0 8.97244 0 20C0 31.0276 8.97198 40 20 40C31.028 40 40 31.0276 40 20C40 8.97244 31.0276 0 20 0ZM20 37.4999C10.3508 37.4999 2.50006 29.6497 2.50006 20C2.50006 10.3503 10.3508 2.50006 20 2.50006C29.6492 2.50006 37.4999 10.3503 37.4999 20C37.4999 29.6497 29.6492 37.4999 20 37.4999ZM25.1293 20.2484C24.321 19.5344 23.1297 19.0066 21.4988 18.6414V13.1629C21.9254 13.2591 22.3062 13.4011 22.6357 13.5895C23.1897 13.9047 23.6438 14.3258 24.025 14.8766C24.1542 15.0636 24.3545 15.1896 24.5785 15.2262C24.804 15.2606 25.0336 15.2061 25.215 15.0695L26.0151 14.4693C26.3725 14.2007 26.4563 13.6981 26.2039 13.3288C25.6325 12.492 24.8906 11.8125 23.9984 11.3098C23.296 10.9139 22.4671 10.6486 21.5245 10.5176V9.22583C21.5245 8.76395 21.1501 8.38958 20.6878 8.38958H19.8373C19.375 8.38958 19.0006 8.76395 19.0006 9.22583V10.4974C17.6415 10.6486 16.4983 11.0725 15.5933 11.7603C14.4376 12.6405 13.8511 13.924 13.8511 15.5759C13.8511 17.1279 14.3588 18.3435 15.36 19.1889C16.1771 19.8795 17.3716 20.4147 19.0011 20.817V26.8577C18.415 26.745 17.905 26.5553 17.4802 26.2905C16.8176 25.8785 16.2178 25.3305 15.6982 24.6619C15.5598 24.4846 15.3564 24.3701 15.1332 24.3444C14.9101 24.3206 14.6855 24.3847 14.5105 24.5263L13.7104 25.1761C13.3613 25.4602 13.2985 25.9697 13.5707 26.3294C14.2493 27.2284 15.086 27.9804 16.0561 28.566C16.8708 29.0586 17.8596 29.372 19.0011 29.5012V30.7751C19.0011 31.237 19.3754 31.6113 19.8378 31.6113H20.6873C21.1497 31.6113 21.524 31.237 21.524 30.7751V29.4852C22.9019 29.2941 24.0484 28.8011 24.9396 28.0152C26.0407 27.0456 26.5988 25.6861 26.5988 23.9751C26.5988 22.3649 26.104 21.1116 25.1293 20.2484ZM19.0006 18.0768C18.5351 17.9417 18.1341 17.796 17.8028 17.642C17.351 17.4317 17.0289 17.1677 16.8424 16.8571C16.6481 16.5326 16.5496 16.085 16.5496 15.5255C16.5496 14.7167 16.7938 14.1531 17.3185 13.7531C17.7423 13.4305 18.3064 13.2151 19.0006 13.1093V18.0768ZM23.1054 26.0893C22.7017 26.4504 22.1628 26.7038 21.4988 26.8458V21.3215C22.4533 21.5864 22.9661 21.8947 23.2387 22.1312C23.6846 22.5188 23.9013 23.1384 23.9013 24.025C23.9013 24.9341 23.6406 25.6091 23.1054 26.0893Z" fill="#B92323"/>
</svg>
