<svg width="27" height="31" viewBox="0 0 27 31" fill="none" xmlns="http://www.w3.org/2000/svg">
<path d="M25.9875 8.59713L18.7695 0.972904C18.0731 0.345996 17.148 0 16.1647 0H3.68182C1.6522 0 0 1.49048 0 3.32143V27.6786C0 29.5095 1.6522 31 3.68182 31H23.3182C25.3478 31 27 29.5095 27 27.6786V10.8819C27 9.99479 26.6164 9.16038 25.9875 8.59713ZM6.13629 9.96446H17.1817C17.8598 9.96446 18.409 10.4599 18.409 11.0716C18.409 11.6833 17.8598 12.1787 17.1817 12.1787H6.13629C5.4582 12.1787 4.90901 11.6833 4.90901 11.0716C4.90901 10.4599 5.4582 9.96446 6.13629 9.96446ZM20.8636 23.2502H6.13629C5.4582 23.2502 4.90901 22.7547 4.90901 22.143C4.90901 21.5313 5.4582 21.0359 6.13629 21.0359H20.8636C21.5416 21.0359 22.0908 21.5313 22.0908 22.143C22.0908 22.7547 21.5416 23.2502 20.8636 23.2502ZM20.8636 17.7145H6.13629C5.4582 17.7145 4.90901 17.219 4.90901 16.6073C4.90901 15.9956 5.4582 15.5002 6.13629 15.5002H20.8636C21.5416 15.5002 22.0908 15.9956 22.0908 16.6073C22.0908 17.219 21.5416 17.7145 20.8636 17.7145Z" fill="#332C66"/>
</svg>
