<svg width="50" height="40" viewBox="0 0 50 40" fill="none" xmlns="http://www.w3.org/2000/svg">
<path fill-rule="evenodd" clip-rule="evenodd" d="M3.13407 5.47343H29.0323C29.0117 7.42953 29.16 9.28803 29.4794 11.0444L0.000137205 11.0467V8.92722C0.000137205 7.02335 1.40742 5.47343 3.13407 5.47343ZM30.4375 3.58089C34.3133 2.97725 37.5047 1.73145 40.1816 0C42.8582 1.73145 46.0519 2.97725 49.9258 3.58089C50.5336 13.0117 47.4202 19.9148 40.1816 24.5192C32.943 19.9149 29.8298 13.0117 30.4375 3.58089ZM37.2267 12.1269L39.0605 14.1466C39.3201 14.4325 39.7425 14.4325 40.0042 14.1466L43.2928 10.5248C43.5524 10.2389 43.5524 9.77369 43.2928 9.48549C43.0331 9.19956 42.6107 9.19956 42.349 9.48549L39.5324 12.5898L38.1704 11.0899C37.9108 10.8017 37.4884 10.8017 37.2267 11.0899C36.9651 11.3758 36.965 11.8387 37.2267 12.1269ZM40.2597 6.07016C37.5234 6.07016 35.3063 8.51412 35.3063 11.5277C35.3063 14.5412 37.5254 16.9852 40.2597 16.9852C42.996 16.9852 45.2151 14.5412 45.2151 11.5277C45.213 8.51412 42.9939 6.07016 40.2597 6.07016ZM4.8257 31.933C5.33258 31.933 5.74468 32.3869 5.74468 32.9451C5.74468 33.5033 5.33258 33.9572 4.8257 33.9572C4.31883 33.9572 3.90673 33.5033 3.90673 32.9451C3.90467 32.3846 4.31676 31.933 4.8257 31.933ZM11.7821 31.933C12.289 31.933 12.7011 32.3869 12.7011 32.9451C12.7011 33.5033 12.289 33.9572 11.7821 33.9572C11.2752 33.9572 10.8631 33.5033 10.8631 32.9451C10.8631 32.3846 11.2752 31.933 11.7821 31.933ZM8.30401 31.933C8.81089 31.933 9.22299 32.3869 9.22299 32.9451C9.22299 33.5033 8.81089 33.9572 8.30401 33.9572C7.79713 33.9572 7.38504 33.5033 7.38504 32.9451C7.38504 32.3846 7.79507 31.933 8.30401 31.933ZM5.45646 21.9097H14.8108C15.4207 21.9097 15.9749 22.1843 16.3768 22.6268C16.7786 23.067 17.0258 23.6775 17.0258 24.3515V26.9225C17.0258 27.5942 16.7765 28.2046 16.3768 28.6472C15.975 29.0897 15.4207 29.3643 14.8108 29.3643H5.45646C4.84448 29.3643 4.29231 29.0897 3.89048 28.6472C3.48865 28.2047 3.24142 27.5942 3.24142 26.9225L3.23936 24.3492C3.23936 23.6752 3.48867 23.0648 3.88842 22.6245C4.29021 22.182 4.84448 21.9097 5.45646 21.9097ZM37.5399 32.7475V35.584H40.3937C40.5173 35.584 40.6286 35.5273 40.7089 35.4388C40.7893 35.3503 40.8408 35.2255 40.8408 35.0916V33.2422C40.8408 33.106 40.7893 32.9835 40.7089 32.895C40.6286 32.8065 40.5152 32.7497 40.3937 32.7497H37.5399V32.7475ZM36.2068 35.584V32.7475H24.7589C24.6353 32.7475 24.524 32.8042 24.4436 32.8927C24.3633 32.9812 24.3118 33.106 24.3118 33.2399V35.0893C24.3118 35.2255 24.3633 35.348 24.4436 35.4365C24.524 35.525 24.6373 35.5818 24.7589 35.5818H36.2068V35.584ZM24.7589 31.2792H40.3918C40.8822 31.2792 41.3273 31.4994 41.6508 31.8556C41.9743 32.2119 42.1741 32.702 42.1741 33.2421V35.0916C42.1741 35.6316 41.9743 36.1218 41.6508 36.4781C41.3273 36.8321 40.8822 37.0522 40.3918 37.0522H24.7589C24.2685 37.0522 23.8235 36.8321 23.5 36.4781C23.1765 36.1218 22.9766 35.6317 22.9766 35.0916V33.2421C22.9766 32.702 23.1765 32.2119 23.5 31.8556C23.8235 31.4994 24.2685 31.2792 24.7589 31.2792ZM3.90499 37.0522C3.53616 37.0522 3.23947 36.7232 3.23947 36.317C3.23947 35.9108 3.53823 35.584 3.90499 35.584H16.3751C16.744 35.584 17.0407 35.9131 17.0407 36.317C17.0407 36.7232 16.7419 37.0522 16.3751 37.0522H3.90499ZM14.8112 23.3778H5.45683C5.2137 23.3778 4.99322 23.4867 4.83251 23.6637C4.67179 23.8407 4.57289 24.0835 4.57289 24.3513V26.9223C4.57289 27.1901 4.67179 27.4329 4.83251 27.6099C4.99322 27.7869 5.2137 27.8959 5.45683 27.8959H14.8112C15.0543 27.8959 15.2748 27.7869 15.4355 27.6099C15.5962 27.4329 15.6951 27.1901 15.6951 26.9223L15.693 24.349C15.693 24.0812 15.5941 23.8384 15.4334 23.6614C15.2727 23.4867 15.0522 23.3778 14.8112 23.3778ZM29.7905 12.515H5.28196e-05V17.5323H31.6815C30.8553 15.9711 30.2273 14.2986 29.7905 12.515ZM32.5392 19.0005H0V36.5462C0 38.4478 1.40732 40 3.13603 40H41.6505C43.3771 40 44.7845 38.4501 44.7845 36.5462V22.7062C43.6327 23.825 42.3222 24.8529 40.849 25.7901L40.1835 26.2145L39.5179 25.7901C36.5385 23.8976 34.2266 21.6285 32.5392 19.0005Z" fill="#539C65"/>
</svg>
